<svg xmlns="http://www.w3.org/2000/svg" viewBox="0 0 200 200" width="400" height="400">
  <defs>
    <radialGradient id="pb" cx="38%" cy="35%" r="70%"><stop offset="0" stop-color="#FFC27A"/><stop offset="1" stop-color="#F28B1E"/></radialGradient>
    <g id="sp"><circle cx="0" cy="0" r="18" fill="url(#pb)"/><circle cx="-5" cy="-5" r="3" fill="#FFE2BD" fill-opacity=".8"/><circle cx="6" cy="4" r="2.2" fill="#FFE2BD" fill-opacity=".6"/><line x1="18" y1="0" x2="27" y2="0" stroke="#F59E42" stroke-width="3" stroke-linecap="round"/><circle cx="28" cy="0" r="3" fill="#F28B1E"/><line x1="14.56" y1="10.58" x2="21.84" y2="15.87" stroke="#F59E42" stroke-width="3" stroke-linecap="round"/><circle cx="22.65" cy="16.46" r="3" fill="#F28B1E"/><line x1="5.56" y1="17.12" x2="8.34" y2="25.68" stroke="#F59E42" stroke-width="3" stroke-linecap="round"/><circle cx="8.65" cy="26.63" r="3" fill="#F28B1E"/><line x1="-5.56" y1="17.12" x2="-8.34" y2="25.68" stroke="#F59E42" stroke-width="3" stroke-linecap="round"/><circle cx="-8.65" cy="26.63" r="3" fill="#F28B1E"/><line x1="-14.56" y1="10.58" x2="-21.84" y2="15.87" stroke="#F59E42" stroke-width="3" stroke-linecap="round"/><circle cx="-22.65" cy="16.46" r="3" fill="#F28B1E"/><line x1="-18" y1="0" x2="-27" y2="0" stroke="#F59E42" stroke-width="3" stroke-linecap="round"/><circle cx="-28" cy="0" r="3" fill="#F28B1E"/><line x1="-14.56" y1="-10.58" x2="-21.84" y2="-15.87" stroke="#F59E42" stroke-width="3" stroke-linecap="round"/><circle cx="-22.65" cy="-16.46" r="3" fill="#F28B1E"/><line x1="-5.56" y1="-17.12" x2="-8.34" y2="-25.68" stroke="#F59E42" stroke-width="3" stroke-linecap="round"/><circle cx="-8.65" cy="-26.63" r="3" fill="#F28B1E"/><line x1="5.56" y1="-17.12" x2="8.34" y2="-25.68" stroke="#F59E42" stroke-width="3" stroke-linecap="round"/><circle cx="8.65" cy="-26.63" r="3" fill="#F28B1E"/><line x1="14.56" y1="-10.58" x2="21.84" y2="-15.87" stroke="#F59E42" stroke-width="3" stroke-linecap="round"/><circle cx="22.65" cy="-16.46" r="3" fill="#F28B1E"/></g>
  </defs>
  <use href="#sp" transform="translate(58 80) scale(.62)"><animateTransform attributeName="transform" type="rotate" additive="sum" from="0" to="360" dur="22s" repeatCount="indefinite"/></use>
  <use href="#sp" transform="translate(132 62) scale(.5)"><animateTransform attributeName="transform" type="rotate" additive="sum" from="360" to="0" dur="26s" repeatCount="indefinite"/></use>
  <use href="#sp" transform="translate(96 132) scale(.7)"><animateTransform attributeName="transform" type="rotate" additive="sum" from="0" to="360" dur="30s" repeatCount="indefinite"/></use>
  <use href="#sp" transform="translate(150 128) scale(.4)"><animateTransform attributeName="transform" type="rotate" additive="sum" from="0" to="360" dur="18s" repeatCount="indefinite"/></use>
  <g>
    <circle cx="96" cy="92" r="40" fill="#FFFFFF" fill-opacity=".38" stroke="#B8C4D9" stroke-width="8"/>
    <path d="M70 70 A32 32 0 0 1 96 58" fill="none" stroke="#FFFFFF" stroke-width="4" stroke-linecap="round" stroke-opacity=".9"/>
    <line x1="126" y1="122" x2="158" y2="158" stroke="#FD3995" stroke-width="13" stroke-linecap="round"/>
    <animateTransform attributeName="transform" type="translate" values="-26 -14;22 -22;30 20;-18 26;-26 -14" keyTimes="0;0.25;0.5;0.75;1" calcMode="spline" keySplines="0.4 0 0.6 1;0.4 0 0.6 1;0.4 0 0.6 1;0.4 0 0.6 1" dur="10s" repeatCount="indefinite"/>
  </g>
</svg>